<?xml version="1.0" encoding="utf-8"?>
<!-- Generator: Adobe Illustrator 22.1.0, SVG Export Plug-In . SVG Version: 6.00 Build 0)  -->
<svg version="1.1" id="Layer_1" xmlns="http://www.w3.org/2000/svg" xmlns:xlink="http://www.w3.org/1999/xlink" x="0px" y="0px"
	 viewBox="0 0 500 500" style="enable-background:new 0 0 500 500;" xml:space="preserve">
<style type="text/css">
	.st0{fill:#A2AAAD;}
	.st1{opacity:0.86;}
	.st2{fill:#FFFFFF;}
</style>
<rect x="-0.5" y="-0.5" class="st0" width="501" height="501"/>
<g class="st1">
	<path class="st2" d="M327,320.6c0,5.3-1.9,9.9-5.6,13.6c-3.7,3.7-8.3,5.6-13.6,5.6H153.7c-5.3,0-9.9-1.9-13.6-5.6
		c-3.7-3.7-5.6-8.3-5.6-13.6V217.9c0-5.4,1.9-9.9,5.6-13.6c3.7-3.7,8.3-5.6,13.6-5.6h6.4v19.3h-4c-0.5,0-1.1,0.3-1.6,0.8
		c-0.5,0.5-0.8,1.1-0.8,1.6v97.9c0,0.5,0.3,1.1,0.8,1.6c0.5,0.5,1.1,0.8,1.6,0.8h149.3c0.5,0,1.1-0.3,1.6-0.8
		c0.5-0.5,0.8-1.1,0.8-1.6v-4H327V320.6z M360,165.7c3.7,3.7,5.6,8.3,5.6,13.6v102.7c0,5.4-1.9,9.9-5.6,13.6
		c-3.7,3.7-8.3,5.6-13.6,5.6H192.2c-5.4,0-9.9-1.9-13.6-5.6c-3.7-3.7-5.6-8.3-5.6-13.6V179.4c0-5.3,1.9-9.9,5.6-13.6
		c3.7-3.7,8.3-5.6,13.6-5.6h154.1C351.7,160.1,356.2,162,360,165.7z M194.6,179.4c-0.5,0-1.1,0.3-1.6,0.8c-0.5,0.5-0.8,1.1-0.8,1.6
		v97.9c0,0.5,0.3,1.1,0.8,1.6c0.5,0.5,1.1,0.8,1.6,0.8h149.3c0.5,0,1.1-0.3,1.6-0.8c0.5-0.5,0.8-1.1,0.8-1.6v-97.9
		c0-0.5-0.3-1.1-0.8-1.6c-0.5-0.5-1.1-0.8-1.6-0.8H194.6z M235.8,216.5c-3.1,3.1-6.9,4.6-11.4,4.6c-4.5,0-8.4-1.5-11.4-4.6
		c-3.1-3.1-4.6-6.9-4.6-11.4c0-4.5,1.5-8.4,4.6-11.4c3.1-3.1,6.9-4.6,11.4-4.6c4.5,0,8.4,1.5,11.4,4.6c3.1,3.1,4.6,6.9,4.6,11.4
		C240.4,209.6,238.8,213.4,235.8,216.5z M227.5,227.5c0.8-0.8,1.9-1.2,3.2-1.2c1.3,0,2.4,0.4,3.2,1.2l16.1,16.1l41.7-41.7
		c0.8-0.8,1.9-1.2,3.2-1.2c1.3,0,2.4,0.4,3.2,1.2l28.9,28.9v32.1H211.5v-19.3L227.5,227.5z"/>
</g>
</svg>
